<svg width="77" height="86" viewBox="0 0 77 86" fill="none" xmlns="http://www.w3.org/2000/svg">
<path d="M50.2 85.28C33.9867 85.28 21.6987 81.696 13.336 74.528C5.05867 67.36 0.92 56.7787 0.92 42.784C0.92 28.7893 5.016 18.208 13.208 11.04C21.4853 3.87199 33.7307 0.287994 49.944 0.287994C55.2347 0.287994 59.8853 0.671995 63.896 1.43999C67.992 2.208 72.0027 3.31733 75.928 4.768V31.776C68.1627 28.192 60.184 26.4 51.992 26.4C46.0187 26.4 41.2827 27.5947 37.784 29.984C34.2853 32.288 32.536 36.5547 32.536 42.784C32.536 49.0133 34.328 53.3227 37.912 55.712C41.496 58.016 46.2747 59.168 52.248 59.168C60.44 59.168 68.4187 57.376 76.184 53.792V80.8C72.2587 82.1653 68.248 83.232 64.152 84C60.1413 84.8533 55.4907 85.28 50.2 85.28Z" fill="#1690AF"/>
</svg>
